<svg width="39" height="38" viewBox="0 0 39 38" fill="none" xmlns="http://www.w3.org/2000/svg">
<g filter="url(#filter0_d_2055_1531)">
<path d="M30.8397 0H8.92491C6.6923 0 4.88232 1.80989 4.88232 4.04256V25.9573C4.88232 28.19 6.69222 29.9999 8.92491 29.9999H19.7332L19.7516 19.2795H16.9664C16.6045 19.2795 16.3107 18.9869 16.3093 18.6249L16.296 15.1693C16.2946 14.8054 16.5892 14.5096 16.9531 14.5096H19.7332V11.1706C19.7332 7.29576 22.0998 5.18587 25.5564 5.18587H28.3929C28.7558 5.18587 29.0501 5.48008 29.0501 5.84305V8.75684C29.0501 9.11967 28.756 9.4138 28.3933 9.41402L26.6526 9.41483C24.7727 9.41483 24.4087 10.3081 24.4087 11.619V14.5097H28.5394C28.933 14.5097 29.2383 14.8534 29.1919 15.2442L28.7824 18.6998C28.7432 19.0305 28.4628 19.2797 28.1298 19.2797H24.4271L24.4087 30H30.8398C33.0724 30 34.8823 28.1901 34.8823 25.9575V4.04256C34.8823 1.80989 33.0724 0 30.8397 0Z" fill="#797979"/>
</g>
<defs>
<filter id="filter0_d_2055_1531" x="0.882324" y="0" width="38" height="38" filterUnits="userSpaceOnUse" color-interpolation-filters="sRGB">
<feFlood flood-opacity="0" result="BackgroundImageFix"/>
<feColorMatrix in="SourceAlpha" type="matrix" values="0 0 0 0 0 0 0 0 0 0 0 0 0 0 0 0 0 0 127 0" result="hardAlpha"/>
<feOffset dy="4"/>
<feGaussianBlur stdDeviation="2"/>
<feComposite in2="hardAlpha" operator="out"/>
<feColorMatrix type="matrix" values="0 0 0 0 0 0 0 0 0 0 0 0 0 0 0 0 0 0 0.25 0"/>
<feBlend mode="normal" in2="BackgroundImageFix" result="effect1_dropShadow_2055_1531"/>
<feBlend mode="normal" in="SourceGraphic" in2="effect1_dropShadow_2055_1531" result="shape"/>
</filter>
</defs>
</svg>
