<svg width="61" height="31" viewBox="0 0 61 31" fill="none" xmlns="http://www.w3.org/2000/svg">
<path d="M61 2.64263C60.8345 1.28896 59.8299 0.210052 58.5504 0C52.9427 0 8.0817 0 2.47395 0C1.07254 0.230209 0 1.50219 0 3.03515C0 5.49955 0 25.2105 0 27.6738C0 29.3712 1.3123 30.7472 2.93224 30.7472C8.4477 30.7472 52.5767 30.7472 58.0922 30.7472C59.5837 30.7472 60.8154 29.5792 61 28.0674C61 22.9827 61 5.18447 61 2.64263Z" fill="#F6C700"/>
<path d="M36.1615 21.8218C36.0724 22.0584 35.682 22.1783 35.3871 22.1783C35.0985 22.1783 34.9065 22.0637 34.8089 21.8335C34.7113 21.6043 34.6636 21.0813 34.6636 20.2623C34.6636 19.7701 34.6636 15.83 34.6636 15.3378C34.6636 14.4891 34.706 13.9597 34.7919 13.7486C34.8768 13.5396 35.0635 13.4335 35.3521 13.4335C35.647 13.4335 36.0427 13.5534 36.1446 13.7942C36.2453 14.035 36.2963 14.5495 36.2963 15.3378C36.2963 15.656 36.2963 17.2473 36.2963 20.1127C36.2655 21.0941 36.2209 21.6637 36.1615 21.8218ZM30 24.6342H34.3581C34.5395 23.9223 34.6392 23.5266 34.6593 23.4471C35.054 23.9245 35.4879 24.283 35.9642 24.5207C36.4384 24.7594 37.1481 24.8782 37.6977 24.8782C38.4626 24.8782 39.1224 24.6777 39.6794 24.2756C40.2353 23.8746 40.5896 23.3993 40.7402 22.853C40.8909 22.3056 40.9662 21.4738 40.9662 20.3557C40.9662 19.8327 40.9662 15.6507 40.9662 15.1277C40.9662 14.0032 40.9407 13.2691 40.8909 12.9243C40.841 12.5795 40.6925 12.2284 40.4453 11.8687C40.1981 11.5091 39.8385 11.2301 39.3675 11.0306C38.8965 10.8312 38.3406 10.7315 37.6998 10.7315C37.1428 10.7315 36.4299 10.8429 35.9547 11.0625C35.4805 11.2821 35.0497 11.6152 34.6636 12.0618C34.6636 11.6576 34.6636 9.63772 34.6636 6H30V24.6342Z" fill="black"/>
<path d="M49.1615 21.8218C49.0724 22.0584 48.682 22.1783 48.3871 22.1783C48.0985 22.1783 47.9065 22.0637 47.8089 21.8335C47.7113 21.6043 47.6636 21.0813 47.6636 20.2623C47.6636 19.7701 47.6636 15.83 47.6636 15.3378C47.6636 14.4891 47.706 13.9597 47.7919 13.7486C47.8768 13.5396 48.0635 13.4335 48.3521 13.4335C48.647 13.4335 49.0427 13.5534 49.1446 13.7942C49.2453 14.035 49.2963 14.5495 49.2963 15.3378C49.2963 15.656 49.2963 17.2473 49.2963 20.1127C49.2655 21.0941 49.2209 21.6637 49.1615 21.8218ZM43 24.6342H47.3581C47.5395 23.9223 47.6392 23.5266 47.6593 23.4471C48.054 23.9245 48.4879 24.283 48.9642 24.5207C49.4384 24.7594 50.1481 24.8782 50.6977 24.8782C51.4626 24.8782 52.1224 24.6777 52.6794 24.2756C53.2353 23.8746 53.5896 23.3993 53.7402 22.853C53.8909 22.3056 53.9662 21.4738 53.9662 20.3557C53.9662 19.8327 53.9662 15.6507 53.9662 15.1277C53.9662 14.0032 53.9407 13.2691 53.8909 12.9243C53.841 12.5795 53.6925 12.2284 53.4453 11.8687C53.1981 11.5091 52.8385 11.2301 52.3675 11.0306C51.8965 10.8312 51.3406 10.7315 50.6998 10.7315C50.1428 10.7315 49.4299 10.8429 48.9547 11.0625C48.4805 11.2821 48.0497 11.6152 47.6636 12.0618C47.6636 11.6576 47.6636 9.63772 47.6636 6H43V24.6342Z" fill="black"/>
<path d="M20.5491 14.7055C20.1333 11.8655 19.902 10.287 19.8564 9.9719C19.6538 8.45167 19.4607 7.12877 19.2761 6C18.8571 6 16.7661 6 13 6V24.6342H17.2403L17.2551 12.3302L19.0395 24.6342H22.0598L23.7519 12.0565L23.7678 24.6342H27.9943V6H21.6705L20.5491 14.7055Z" fill="black"/>
<path d="M6 6H10.8407V24.6342H6V6Z" fill="black"/>
</svg>
